HIERARCHY
ROOT hip
{
  OFFSET 0 0 0
  CHANNELS 6 Xposition Yposition Zposition Zrotation Yrotation Xrotation
  JOINT abdomen
  {
    OFFSET 0 20.6881 -0.73152
    CHANNELS 3 Zrotation Xrotation Yrotation
    JOINT chest
    {
      OFFSET 0 11.7043 -0.48768
      CHANNELS 3 Zrotation Xrotation Yrotation
      JOINT neck
      {
        OFFSET 0 22.1894 -2.19456
        CHANNELS 3 Zrotation Xrotation Yrotation
        JOINT head
        {
          OFFSET -0.24384 7.07133 1.2192
          CHANNELS 3 Zrotation Xrotation Yrotation
          JOINT leftEye
          {
            OFFSET 4.14528 8.04674 8.04672
            CHANNELS 3 Zrotation Xrotation Yrotation
            End Site
            {
              OFFSET 1 0 0
            }
          }
          JOINT rightEye
          {
            OFFSET -3.6576 8.04674 8.04672
            CHANNELS 3 Zrotation Xrotation Yrotation
            End Site
            {
              OFFSET 1 0 0
            }
          }
        }
      }
      JOINT rCollar
      {
        OFFSET -2.68224 19.2634 -4.8768
        CHANNELS 3 Zrotation Xrotation Yrotation
        JOINT rShldr
        {
          OFFSET -8.77824 -1.95073 1.46304
          CHANNELS 3 Zrotation Xrotation Yrotation
          JOINT rForeArm
          {
            OFFSET -28.1742 -1.7115 0.48768
            CHANNELS 3 Zrotation Xrotation Yrotation
            JOINT rHand
            {
              OFFSET -22.5879 0.773209 7.07136
              CHANNELS 3 Zrotation Xrotation Yrotation
              JOINT rThumb1
              {
                OFFSET -1.2192 -0.487915 3.41376
                CHANNELS 3 Zrotation Xrotation Yrotation
                JOINT rThumb2
                {
                  OFFSET -3.37035 -0.52449 3.41376
                  CHANNELS 3 Zrotation Xrotation Yrotation
                  End Site
                  {
                    OFFSET -1.78271 -1.18214 1.43049
                  }
                }
              }
              JOINT rIndex1
              {
                OFFSET -7.75947 0.938293 5.60832
                CHANNELS 3 Zrotation Xrotation Yrotation
                JOINT rIndex2
                {
                  OFFSET -2.54057 -0.884171 1.56538
                  CHANNELS 3 Zrotation Xrotation Yrotation
                  End Site
                  {
                    OFFSET -1.62519 -0.234802 1.16502
                  }
                }
              }
              JOINT rMid1
              {
                OFFSET -8.24714 1.18213 3.41376
                CHANNELS 3 Zrotation Xrotation Yrotation
                JOINT rMid2
                {
                  OFFSET -3.10165 -0.590103 1.0647
                  CHANNELS 3 Zrotation Xrotation Yrotation
                  End Site
                  {
                    OFFSET -2.48547 -0.328903 0.83742
                  }
                }
              }
              JOINT rRing1
              {
                OFFSET -8.82822 0.546677 1.51678
                CHANNELS 3 Zrotation Xrotation Yrotation
                JOINT rRing2
                {
                  OFFSET -2.60934 -0.819778 -0.0198488
                  CHANNELS 3 Zrotation Xrotation Yrotation
                  End Site
                  {
                    OFFSET -2.33842 -0.294052 0.168128
                  }
                }
              }
              JOINT rPinky1
              {
                OFFSET -8.27202 -0.0477905 -0.4584
                CHANNELS 3 Zrotation Xrotation Yrotation
                JOINT rPinky2
                {
                  OFFSET -1.82734 -0.647385 -0.700984
                  CHANNELS 3 Zrotation Xrotation Yrotation
                  End Site
                  {
                    OFFSET -1.69225 -0.51767 -0.607171
                  }
                }
              }
            }
          }
        }
      }
      JOINT lCollar
      {
        OFFSET 2.68224 19.2634 -4.8768
        CHANNELS 3 Zrotation Xrotation Yrotation
        JOINT lShldr
        {
          OFFSET 8.77824 -1.95073 1.46304
          CHANNELS 3 Zrotation Xrotation Yrotation
          JOINT lForeArm
          {
            OFFSET 28.1742 -1.7115 0.48768
            CHANNELS 3 Zrotation Xrotation Yrotation
            JOINT lHand
            {
              OFFSET 22.5879 0.773209 7.07136
              CHANNELS 3 Zrotation Xrotation Yrotation
              JOINT lThumb1
              {
                OFFSET 1.2192 -0.487915 3.41376
                CHANNELS 3 Zrotation Xrotation Yrotation
                JOINT lThumb2
                {
                  OFFSET 3.37035 -0.52449 3.41376
                  CHANNELS 3 Zrotation Xrotation Yrotation
                  End Site
                  {
                    OFFSET 1.78271 -1.18214 1.43049
                  }
                }
              }
              JOINT lIndex1
              {
                OFFSET 7.75947 0.938293 5.60832
                CHANNELS 3 Zrotation Xrotation Yrotation
                JOINT lIndex2
                {
                  OFFSET 2.54057 -0.884171 1.56538
                  CHANNELS 3 Zrotation Xrotation Yrotation
                  End Site
                  {
                    OFFSET 1.62519 -0.234802 1.16502
                  }
                }
              }
              JOINT lMid1
              {
                OFFSET 8.24714 1.18213 3.41376
                CHANNELS 3 Zrotation Xrotation Yrotation
                JOINT lMid2
                {
                  OFFSET 3.10165 -0.590103 1.0647
                  CHANNELS 3 Zrotation Xrotation Yrotation
                  End Site
                  {
                    OFFSET 2.48547 -0.328903 0.83742
                  }
                }
              }
              JOINT lRing1
              {
                OFFSET 8.82822 0.546677 1.51678
                CHANNELS 3 Zrotation Xrotation Yrotation
                JOINT lRing2
                {
                  OFFSET 2.60934 -0.819778 -0.0198488
                  CHANNELS 3 Zrotation Xrotation Yrotation
                  End Site
                  {
                    OFFSET 2.33842 -0.294052 0.168128
                  }
                }
              }
              JOINT lPinky1
              {
                OFFSET 8.27202 -0.0477905 -0.4584
                CHANNELS 3 Zrotation Xrotation Yrotation
                JOINT lPinky2
                {
                  OFFSET 1.82734 -0.647385 -0.700984
                  CHANNELS 3 Zrotation Xrotation Yrotation
                  End Site
                  {
                    OFFSET 1.69225 -0.51767 -0.607171
                  }
                }
              }
            }
          }
        }
      }
    }
  }
  JOINT rButtock
  {
    OFFSET -8.77824 4.35084 1.2192
    CHANNELS 3 Zrotation Xrotation Yrotation
    JOINT rThigh
    {
      OFFSET 0 -1.70687 -2.19456
      CHANNELS 3 Zrotation Xrotation Yrotation
      JOINT rShin
      {
        OFFSET 0 -36.8199 0.73152
        CHANNELS 3 Zrotation Xrotation Yrotation
        JOINT rFoot
        {
          OFFSET 0.73152 -45.1104 -5.12064
          CHANNELS 3 Zrotation Xrotation Yrotation
          End Site
          {
            OFFSET -1.1221 -3.69964 12.103
          }
        }
      }
    }
  }
  JOINT lButtock
  {
    OFFSET 8.77824 4.35084 1.2192
    CHANNELS 3 Zrotation Xrotation Yrotation
    JOINT lThigh
    {
      OFFSET 0 -1.70687 -2.19456
      CHANNELS 3 Zrotation Xrotation Yrotation
      JOINT lShin
      {
        OFFSET 0 -36.8199 0.73152
        CHANNELS 3 Zrotation Xrotation Yrotation
        JOINT lFoot
        {
          OFFSET -0.73152 -45.1104 -5.12064
          CHANNELS 3 Zrotation Xrotation Yrotation
          End Site
          {
            OFFSET 1.1221 -3.69964 12.103
          }
        }
      }
    }
  }
}
MOTION
Frames:	9
Frame Time:	0.00833333
52.6866 85.5269 254.245 0.0 0.0 0.0 2.34101 -0.00222426 0.0637216 0.646598 0.00594969 0.111939 1.53089e-14 -1.59028e-15 -3.72721e-16 4.66989e-14 3.18055e-15 -1.14456e-15 -0.0 0.0 0.0 -0.0 0.0 0.0 7.94921e-15 -1.94126e-16 -4.96962e-17 1.67463e-13 -3.80797e-15 -2.38542e-15 2.81211e-12 -9.814e-13 -7.31528e-14 3.23881e-11 1.30676e-13 -7.56972e-13 7.63691e-11 -1.84846e-12 -1.80019e-12 1.31884e-10 -3.19328e-12 -3.1074e-12 7.63751e-11 -1.84591e-12 -1.81292e-12 7.73091 5.47488 0.417314 7.63704e-11 -1.8481e-12 -1.79383e-12 2.90554 0.965183 0.102902 7.63809e-11 -1.8478e-12 -1.7986e-12 10.2786 0.731801 0.0259123 7.63605e-11 -1.8479e-12 -1.79383e-12 2.22167 -0.733487 -0.20892 7.95405e-15 -1.87137e-16 -3.47873e-16 1.62214e-13 -4.11857e-15 -4.37326e-15 2.84555e-12 7.05884e-13 -1.20861e-13 3.23662e-11 -1.55999e-12 -6.99722e-13 7.63888e-11 -1.85146e-12 -1.80974e-12 1.31921e-10 -3.19964e-12 -3.11694e-12 7.63802e-11 -1.8487e-12 -1.79065e-12 -7.73091 5.47488 -0.417314 7.63865e-11 -1.85069e-12 -1.80974e-12 -2.90554 0.965183 -0.102902 7.63741e-11 -1.85069e-12 -1.80656e-12 -10.2786 0.731801 -0.0259123 7.6391e-11 -1.84989e-12 -1.80974e-12 -2.22167 -0.733487 0.20892 -2.03217e-16 0.0 -3.88251e-19 2.21541 -8.02974 -0.231354 0.0060722 8.9737 0.152076 -0.47761 -0.951465 0.0348555 2.03217e-16 0.0 3.88251e-19 1.35199 -1.92788 -0.00535674 0.00846708 -2.07867 0.0694645 0.423939 3.99897 -0.127301
51.6097 84.0623 242.09 179.394 -15.8147 179.168 2.96829 0.633192 1.03892 0.372963 -1.83911 0.395822 1.8404 3.79292 4.22326 -2.84154 -3.82713 7.83297 -0.0 0.0 0.0 -0.0 0.0 0.0 5.95874e-15 -3.68757e-16 1.10923e-14 21.7453 11.8382 -2.61499 -5.32047 -2.68607 7.9981 -0.0049257 0.0148198 0.00252801 -7.22813e-11 -9.13093e-12 4.96783e-11 -1.25246e-10 -1.62362e-11 8.61875e-11 -7.22736e-11 -9.13036e-12 4.96682e-11 7.73091 5.47488 0.417314 -7.22782e-11 -9.13483e-12 4.96855e-11 2.90554 0.965183 0.102902 -7.22731e-11 -9.13319e-12 4.96802e-11 10.2786 0.731801 0.0259123 -7.22914e-11 -9.13228e-12 4.96864e-11 2.22167 -0.733487 -0.20892 5.96558e-15 -3.61718e-16 1.08679e-14 -22.2921 9.93712 1.43444 5.93596 -3.15756 -8.71725 -0.00284516 1.6713 -0.235033 -1.2963e-10 -3.21606e-10 -1.94632e-11 -2.24472e-10 -5.56443e-10 -3.24687e-11 -1.29637e-10 -3.21602e-10 -1.94431e-11 -7.73091 5.47488 -0.417314 -1.29631e-10 -3.21605e-10 -1.94613e-11 -2.90554 0.965183 -0.102902 -1.29643e-10 -3.21605e-10 -1.94599e-11 -10.2786 0.731801 -0.0259123 -1.29627e-10 -3.21604e-10 -1.9464e-11 -2.22167 -0.733487 0.20892 -2.03217e-16 0.0 -3.88251e-19 4.72114 -8.94576 3.77562 0.0562283 15.8646 0.351304 -2.63103 -7.85783 -9.60531 2.03217e-16 0.0 3.88251e-19 -0.285896 -5.19353 -6.77509 -0.0312153 7.11899 -0.120051 0.829546 -2.75996 2.75697
51.7746 84.09 242.085 179.617 -15.5506 179.585 3.61736 1.33218 2.05072 0.105203 -3.79351 0.69216 3.16051 7.723 8.75399 -4.7109 -7.62817 16.2354 -0.0 0.0 0.0 -0.0 0.0 0.0 3.13771e-15 -7.58037e-16 1.7462e-14 45.9778 24.207 -5.75049 -10.1513 -5.36222 16.5294 -0.0134481 -0.14949 -0.0198205 -2.26468e-10 -9.29262e-12 1.01435e-10 -3.92012e-10 -1.681e-11 1.75885e-10 -2.26458e-10 -9.2942e-12 1.01428e-10 7.73091 5.47488 0.417314 -2.26463e-10 -9.3012e-12 1.01443e-10 2.90554 0.965183 0.102902 -2.26464e-10 -9.29808e-12 1.01438e-10 10.2786 0.731801 0.0259123 -2.2648e-10 -9.29606e-12 1.01445e-10 2.22167 -0.733487 -0.20892 3.14902e-15 -7.50526e-16 1.73191e-14 -46.4391 20.3526 3.08876 11.1916 -6.26358 -18.0355 0.0107394 3.30119 -0.465271 -3.50167e-10 -6.66808e-10 -3.14471e-11 -6.05911e-10 -1.1537e-09 -5.1947e-11 -3.50174e-10 -6.66802e-10 -3.14259e-11 -7.73091 5.47488 -0.417314 -3.50166e-10 -6.66807e-10 -3.14432e-11 -2.90554 0.965183 -0.102902 -3.50178e-10 -6.66807e-10 -3.14438e-11 -10.2786 0.731801 -0.0259123 -3.50164e-10 -6.66806e-10 -3.14487e-11 -2.22167 -0.733487 0.20892 -2.03217e-16 0.0 -3.88251e-19 7.50651 -9.84229 8.01953 0.0524357 23.1521 0.583518 -7.45612 -14.4803 -20.2711 2.03217e-16 0.0 3.88251e-19 -2.86382 -8.44783 -14.033 -0.00469289 16.8442 -0.332694 2.00568 -9.86002 5.88554
51.8661 84.1141 242.105 179.599 -15.3452 180.008 4.15797 1.90174 2.99077 -0.119222 -5.52859 0.967479 3.83183 11.1295 12.8884 -5.43811 -10.6207 23.88 -0.0 0.0 0.0 -0.0 0.0 0.0 1.97781e-15 -7.18019e-16 3.33764e-14 69.0794 35.1843 -9.40845 -13.769 -7.43147 24.1837 -0.014781 0.0444592 0.00758402 -3.69582e-10 -2.36959e-11 1.52635e-10 -6.39506e-10 -4.23222e-11 2.64777e-10 -3.69571e-10 -2.36993e-11 1.5263e-10 7.73091 5.47488 0.417314 -3.69576e-10 -2.37083e-11 1.52644e-10 2.90554 0.965183 0.102902 -3.69581e-10 -2.3704e-11 1.52638e-10 10.2786 0.731801 0.0259123 -3.69595e-10 -2.3701e-11 1.52647e-10 2.22167 -0.733487 -0.20892 1.98866e-15 -7.10881e-16 3.32995e-14 -68.5596 29.7307 4.88276 15.0098 -8.59724 -26.4313 0.032733 5.01356 -0.707506 -5.41667e-10 -9.61115e-10 -5.47701e-11 -9.37258e-10 -1.66293e-09 -9.11724e-11 -5.41672e-10 -9.61108e-10 -5.47479e-11 -7.73091 5.47488 -0.417314 -5.41665e-10 -9.61113e-10 -5.47644e-11 -2.90554 0.965183 -0.102902 -5.41676e-10 -9.61114e-10 -5.47667e-11 -10.2786 0.731801 -0.0259123 -5.41662e-10 -9.61113e-10 -5.47725e-11 -2.22167 -0.733487 0.20892 -2.03217e-16 0.0 -3.88251e-19 10.1169 -10.6094 11.8525 -0.00878856 29.6446 0.820776 -13.9117 -19.2008 -30.4704 2.03217e-16 0.0 3.88251e-19 -5.85773 -11.0942 -20.6334 0.0866558 25.5133 -0.549833 3.73727 -16.103 8.86577
51.9261 84.1311 242.146 179.447 -15.1572 180.457 4.47613 2.14996 3.74983 -0.272971 -6.71593 1.18673 4.07252 13.464 15.8259 -5.46469 -12.4147 29.2676 -0.0 0.0 0.0 -0.0 0.0 0.0 4.97072e-15 3.9524e-16 7.31528e-14 86.6122 42.9662 -13.0203 -15.8995 -8.59416 29.4608 -0.00157758 1.13405 0.159402 -4.85015e-10 -7.3703e-11 2.02442e-10 -8.38823e-10 -1.3018e-10 3.51656e-10 -4.85004e-10 -7.37074e-11 2.02439e-10 7.73091 5.47488 0.417314 -4.85009e-10 -7.37171e-11 2.02452e-10 2.90554 0.965183 0.102902 -4.85017e-10 -7.37123e-11 2.02445e-10 10.2786 0.731801 0.0259123 -4.85029e-10 -7.3709e-11 2.02455e-10 2.22167 -0.733487 -0.20892 4.96881e-15 3.99899e-16 7.31031e-14 -84.427 36.586 6.52103 17.1998 -9.85155 -32.2489 0.0593042 6.93223 -0.979091 -6.60571e-10 -1.12818e-09 -1.0644e-10 -1.14337e-09 -1.95207e-09 -1.79766e-10 -6.60577e-10 -1.12818e-09 -1.06418e-10 -7.73091 5.47488 -0.417314 -6.60569e-10 -1.12818e-09 -1.06434e-10 -2.90554 0.965183 -0.102902 -6.60579e-10 -1.12818e-09 -1.06437e-10 -10.2786 0.731801 -0.0259123 -6.60566e-10 -1.12818e-09 -1.06444e-10 -2.22167 -0.733487 0.20892 -2.03217e-16 0.0 -3.88251e-19 12.0347 -11.1809 14.6147 -0.0900697 34.1513 1.00985 -19.4928 -21.5126 -37.9958 2.03217e-16 0.0 3.88251e-19 -8.30012 -12.7969 -25.3113 0.196329 31.5432 -0.7278 5.35944 -20.3771 11.1171
52.0226 84.1354 242.183 179.403 -14.965 180.872 4.48519 1.90098 4.28387 -0.344447 -7.12934 1.33239 4.26654 14.4823 16.9426 -5.40191 -13.1018 31.2811 -0.0 0.0 0.0 -0.0 0.0 0.0 1.57653e-14 5.14544e-15 1.66767e-13 94.6082 46.6335 -15.3325 -16.5545 -8.8879 31.2801 0.0131121 3.75472 0.525024 -5.66872e-10 -2.04584e-10 2.60894e-10 -9.79486e-10 -3.59369e-10 4.54149e-10 -5.66862e-10 -2.04588e-10 2.60891e-10 7.73091 5.47488 0.417314 -5.66866e-10 -2.04597e-10 2.60904e-10 2.90554 0.965183 0.102902 -5.66873e-10 -2.04592e-10 2.60898e-10 10.2786 0.731801 0.0259123 -5.66883e-10 -2.04589e-10 2.60907e-10 2.22167 -0.733487 -0.20892 1.57276e-14 5.14351e-15 1.66681e-13 -90.8438 40.0753 7.53152 17.8723 -10.1568 -34.2911 0.0971184 9.35633 -1.32407 -7.05452e-10 -1.14058e-09 -2.26607e-10 -1.22223e-09 -1.97361e-09 -3.86872e-10 -7.05462e-10 -1.14058e-09 -2.26585e-10 -7.73091 5.47488 -0.417314 -7.05453e-10 -1.14059e-09 -2.26601e-10 -2.90554 0.965183 -0.102902 -7.05459e-10 -1.14058e-09 -2.26604e-10 -10.2786 0.731801 -0.0259123 -7.05448e-10 -1.14058e-09 -2.26611e-10 -2.22167 -0.733487 0.20892 -2.03217e-16 0.0 -3.88251e-19 12.8768 -11.576 15.8807 -0.13137 35.8758 1.08803 -21.8719 -22.0663 -41.0921 2.03217e-16 0.0 3.88251e-19 -9.29827 -13.59 -27.1417 0.251229 33.8719 -0.805911 6.09782 -22.0307 12.0548
52.2189 84.1479 242.221 179.406 -14.6123 181.609 4.28399 1.30002 4.65583 -0.362174 -6.99041 1.42432 4.55476 14.6095 16.7184 -5.46687 -13.159 30.8384 -0.0 0.0 0.0 -0.0 0.0 0.0 3.20379e-14 1.23918e-14 2.97863e-13 95.0911 47.4736 -16.1425 -16.2734 -8.6668 30.6121 -0.0216082 7.455 1.0474 -6.24498e-10 -3.91754e-10 3.25017e-10 -1.07783e-09 -6.86935e-10 5.66917e-10 -6.24491e-10 -3.91757e-10 3.25013e-10 7.73091 5.47488 0.417314 -6.24494e-10 -3.91764e-10 3.25027e-10 2.90554 0.965183 0.102902 -6.24499e-10 -3.9176e-10 3.25022e-10 10.2786 0.731801 0.0259123 -6.24506e-10 -3.91758e-10 3.25029e-10 2.22167 -0.733487 -0.20892 3.19481e-14 1.23804e-14 2.97696e-13 -90.2646 41.1794 7.90852 17.606 -9.93241 -33.6134 0.164574 12.1303 -1.72623 -6.96145e-10 -1.04139e-09 -3.94327e-10 -1.20789e-09 -1.80208e-09 -6.76279e-10 -6.96159e-10 -1.04139e-09 -3.94307e-10 -7.73091 5.47488 -0.417314 -6.96151e-10 -1.0414e-09 -3.94323e-10 -2.90554 0.965183 -0.102902 -6.96152e-10 -1.04139e-09 -3.94325e-10 -10.2786 0.731801 -0.0259123 -6.96141e-10 -1.04139e-09 -3.94331e-10 -2.22167 -0.733487 0.20892 -2.03217e-16 0.0 -3.88251e-19 12.9211 -11.8641 16.0714 -0.125479 35.6135 1.07376 -21.5845 -21.8312 -40.9115 2.03217e-16 0.0 3.88251e-19 -9.10739 -13.8466 -26.8985 0.243995 33.5576 -0.79717 6.01989 -21.855 11.9632
52.2281 84.1829 242.223 179.402 -14.6173 181.618 4.03577 0.636853 4.91633 -0.360363 -6.64257 1.4829 4.85034 14.3536 15.9655 -5.5793 -12.9561 29.4343 -0.0 0.0 0.0 -0.0 0.0 0.0 4.73212e-14 1.72216e-14 4.11263e-13 92.2918 47.0594 -16.1282 -15.6227 -8.24554 29.003 -0.123758 11.1419 1.58128 -6.6415e-10 -5.51795e-10 3.74456e-10 -1.14518e-09 -9.67377e-10 6.54302e-10 -6.64147e-10 -5.51797e-10 3.74451e-10 7.73091 5.47488 0.417314 -6.64149e-10 -5.518e-10 3.74466e-10 2.90554 0.965183 0.102902 -6.6415e-10 -5.51798e-10 3.74462e-10 10.2786 0.731801 0.0259123 -6.64156e-10 -5.51797e-10 3.74467e-10 2.22167 -0.733487 -0.20892 4.71824e-14 1.72015e-14 4.11011e-13 -86.8218 41.1653 7.93501 16.9648 -9.49825 -31.8993 0.258315 14.6963 -2.10892 -6.20987e-10 -8.60009e-10 -5.34973e-10 -1.07938e-09 -1.4885e-09 -9.19569e-10 -6.21005e-10 -8.60021e-10 -5.34956e-10 -7.73091 5.47488 -0.417314 -6.20997e-10 -8.60022e-10 -5.34972e-10 -2.90554 0.965183 -0.102902 -6.20993e-10 -8.60014e-10 -5.34972e-10 -10.2786 0.731801 -0.0259123 -6.20983e-10 -8.60008e-10 -5.34978e-10 -2.22167 -0.733487 0.20892 -2.03217e-16 0.0 -3.88251e-19 12.6333 -12.0674 15.7945 -0.10101 34.5611 1.02333 -20.2424 -21.3112 -39.405 2.03217e-16 0.0 3.88251e-19 -8.4282 -13.854 -25.8259 0.212229 32.1973 -0.753795 5.61717 -20.9479 11.4634
52.2744 84.2009 242.226 179.501 -14.5982 181.619 3.89837 0.200764 5.11521 -0.370777 -6.42916 1.52877 5.05151 14.2196 15.5028 -5.64594 -12.8594 28.5691 -0.0 0.0 0.0 -0.0 0.0 0.0 5.51483e-14 1.47221e-14 4.51788e-13 90.7341 46.9079 -16.2152 -15.1961 -7.96116 27.9931 -0.236746 13.7246 1.96702 -6.92086e-10 -6.01287e-10 3.88858e-10 -1.19285e-09 -1.05519e-09 6.80643e-10 -6.92084e-10 -6.01288e-10 3.88851e-10 7.73091 5.47488 0.417314 -6.92086e-10 -6.01289e-10 3.88867e-10 2.90554 0.965183 0.102902 -6.92084e-10 -6.01289e-10 3.88864e-10 10.2786 0.731801 0.0259123 -6.92088e-10 -6.01288e-10 3.88867e-10 2.22167 -0.733487 -0.20892 5.49822e-14 1.46974e-14 4.5149e-13 -84.7581 41.2884 7.98176 16.5421 -9.2008 -30.8256 0.345906 16.4981 -2.38562 -4.68314e-10 -6.2586e-10 -5.73918e-10 -8.15709e-10 -1.08389e-09 -9.88325e-10 -4.68335e-10 -6.25876e-10 -5.73902e-10 -7.73091 5.47488 -0.417314 -4.68326e-10 -6.25876e-10 -5.73918e-10 -2.90554 0.965183 -0.102902 -4.6832e-10 -6.25867e-10 -5.73918e-10 -10.2786 0.731801 -0.0259123 -4.68311e-10 -6.2586e-10 -5.73925e-10 -2.22167 -0.733487 0.20892 -2.03217e-16 0.0 -3.88251e-19 12.4954 -12.2004 15.6607 -0.0866521 33.9153 0.993112 -19.4597 -20.9836 -38.5149 2.03217e-16 0.0 3.88251e-19 -7.99525 -13.8829 -25.1794 0.194413 31.388 -0.728565 5.39083 -20.4052 11.1817
